<?xml version="1.0" encoding="utf-8"?>
<!-- Generator: Adobe Illustrator 24.0.3, SVG Export Plug-In . SVG Version: 6.00 Build 0)  -->
<svg version="1.1" id="Layer_1" xmlns="http://www.w3.org/2000/svg" xmlns:xlink="http://www.w3.org/1999/xlink" x="0px" y="0px"
	 viewBox="0 0 685.5 421.5" style="enable-background:new 0 0 685.5 421.5;" xml:space="preserve">
<style type="text/css">
	.st0{fill:none;stroke:#FF0000;stroke-width:1.000000e-02;stroke-miterlimit:10;}
	.st1{fill:none;stroke:#FF0000;stroke-width:2;stroke-miterlimit:10;}
</style>
<path class="st0" d="M200.7,266.7h176.2V12H200.7V266.7z"/>
<path class="st0" d="M16,266.7h176.2V12H16V266.7z"/>
<path class="st0" d="M344.2,405.3H185V274.9h159.2V405.3z"/>
<path class="st0" d="M526.7,266.6V12.1H657v254.6L526.7,266.6z"/>
<path class="st0" d="M385.4,266.6V12.1h130.4v254.6L385.4,266.6z"/>
<path class="st0" d="M282,325.9h-35.4v-21.8H282V325.9z"/>
<circle class="st0" cx="104.1" cy="210.5" r="9.9"/>
<circle class="st1" cx="104.1" cy="210.5" r="20.1"/>
<circle class="st0" cx="52.5" cy="210.5" r="9.9"/>
<circle class="st1" cx="52.5" cy="210.5" r="20.1"/>
<circle class="st0" cx="155.7" cy="210.5" r="9.9"/>
<circle class="st1" cx="155.7" cy="210.5" r="20.1"/>
<circle class="st0" cx="104.1" cy="97.6" r="28.3"/>
<path class="st0" d="M175.2,405.3H16V274.9h159.2V405.3z"/>
</svg>
